<?xml version="1.0" encoding="UTF-8" standalone="no"?>
<!-- Created with Inkscape (http://www.inkscape.org/) -->

<svg
   width="210mm"
   height="210mm"
   viewBox="0 0 210 210"
   version="1.1"
   id="svg5"
   inkscape:version="1.1.2 (08b2f3d93c, 2022-04-05)"
   sodipodi:docname="demo.svg"
   xmlns:inkscape="http://www.inkscape.org/namespaces/inkscape"
   xmlns:sodipodi="http://sodipodi.sourceforge.net/DTD/sodipodi-0.dtd"
   xmlns="http://www.w3.org/2000/svg"
   xmlns:svg="http://www.w3.org/2000/svg">
  <sodipodi:namedview
     id="namedview7"
     pagecolor="#ffffff"
     bordercolor="#666666"
     borderopacity="1.0"
     inkscape:pageshadow="2"
     inkscape:pageopacity="0.0"
     inkscape:pagecheckerboard="0"
     inkscape:document-units="mm"
     showgrid="false"
     inkscape:zoom="0.5499273"
     inkscape:cx="351.86469"
     inkscape:cy="371.86734"
     inkscape:window-width="1532"
     inkscape:window-height="836"
     inkscape:window-x="0"
     inkscape:window-y="0"
     inkscape:window-maximized="1"
     inkscape:current-layer="layer1" />
  <defs
     id="defs2" />
  <g
     inkscape:label="Layer 1"
     inkscape:groupmode="layer"
     id="layer1"
     style="display:inline">
    <g
       style="fill:none;stroke:#000000;stroke-width:0.2"
       id="g393"
       transform="matrix(0.63990789,0,0,0.63990789,95.296687,-55.145079)">
      <g
         transform="translate(3.8925,3.8925)"
         style="fill:none;stroke:#000000;stroke-width:0.2"
         id="g81">
        <path
           d="m 16.956253,109.295 v 21.575 5.05 H 7.43125 v 19.05 h 4.762501 v 19.05 H 2.66875 v 19.05 h 9.525001 v 19.05 2.525 H -118.0562 a 5.1025,5.1025 0 0 1 -5.1025,-5.1025 v -95.145 a 5.1025,5.1025 0 0 1 5.1025,-5.1025 z"
           id="path9" />
        <rect
           width="13.895"
           height="13.895"
           x="-113.24125"
           y="119.5"
           id="rect11" />
        <rect
           width="13.895"
           height="13.895"
           x="-94.191238"
           y="119.5"
           id="rect13" />
        <rect
           width="13.895"
           height="13.895"
           x="-75.141243"
           y="119.5"
           id="rect15" />
        <rect
           width="13.895"
           height="13.895"
           x="-56.09124"
           y="119.5"
           id="rect17" />
        <rect
           width="13.895"
           height="13.895"
           x="-37.041237"
           y="119.5"
           id="rect19" />
        <rect
           width="13.895"
           height="13.895"
           x="-17.991245"
           y="119.5"
           id="rect21" />
        <rect
           width="13.895"
           height="13.895"
           x="1.0587505"
           y="119.5"
           id="rect23" />
        <rect
           width="13.895"
           height="13.895"
           x="-103.71625"
           y="138.55"
           id="rect25" />
        <rect
           width="13.895"
           height="13.895"
           x="-84.666245"
           y="138.55"
           id="rect27" />
        <rect
           width="13.895"
           height="13.895"
           x="-65.616241"
           y="138.55"
           id="rect29" />
        <rect
           width="13.895"
           height="13.895"
           x="-46.566238"
           y="138.55"
           id="rect31" />
        <rect
           width="13.895"
           height="13.895"
           x="-27.516245"
           y="138.55"
           id="rect33" />
        <rect
           width="13.895"
           height="13.895"
           x="-8.4662561"
           y="138.55"
           id="rect35" />
        <rect
           width="13.895"
           height="13.895"
           x="-118.00374"
           y="157.60001"
           id="rect37" />
        <rect
           width="13.895"
           height="13.895"
           x="-98.953743"
           y="157.60001"
           id="rect39" />
        <rect
           width="13.895"
           height="13.895"
           x="-79.90374"
           y="157.60001"
           id="rect41" />
        <rect
           width="13.895"
           height="13.895"
           x="-60.853745"
           y="157.60001"
           id="rect43" />
        <rect
           width="13.895"
           height="13.895"
           x="-41.803741"
           y="157.60001"
           id="rect45" />
        <rect
           width="13.895"
           height="13.895"
           x="-22.75374"
           y="157.60001"
           id="rect47" />
        <rect
           width="13.895"
           height="13.895"
           x="-3.7037582"
           y="157.60001"
           id="rect49" />
        <rect
           width="13.895"
           height="13.895"
           x="-108.47875"
           y="176.64999"
           id="rect51" />
        <rect
           width="13.895"
           height="13.895"
           x="-89.428741"
           y="176.64999"
           id="rect53" />
        <rect
           width="13.895"
           height="13.895"
           x="-70.378738"
           y="176.64999"
           id="rect55" />
        <rect
           width="13.895"
           height="13.895"
           x="-51.328743"
           y="176.64999"
           id="rect57" />
        <rect
           width="13.895"
           height="13.895"
           x="-32.27874"
           y="176.64999"
           id="rect59" />
        <rect
           width="13.895"
           height="13.895"
           x="-13.228745"
           y="176.64999"
           id="rect61" />
        <rect
           width="13.895"
           height="13.895"
           x="-110.85999"
           y="195.7"
           id="rect63" />
        <rect
           width="13.895"
           height="13.895"
           x="-87.047493"
           y="195.7"
           id="rect65" />
        <rect
           width="13.895"
           height="13.895"
           x="-63.234993"
           y="195.7"
           id="rect67" />
        <rect
           width="13.895"
           height="13.895"
           x="-39.422493"
           y="195.7"
           id="rect69" />
        <rect
           width="13.895"
           height="13.895"
           x="-10.847501"
           y="195.7"
           id="rect71" />
        <circle
           cx="-117.00628"
           cy="115.4475"
           r="0.9975"
           id="circle73" />
        <circle
           cx="-117.00628"
           cy="208.5975"
           r="0.9975"
           id="circle75" />
        <circle
           cx="10.856241"
           cy="115.4475"
           r="0.9975"
           id="circle77" />
        <circle
           cx="7.4312558"
           cy="208.5975"
           r="0.9975"
           id="circle79" />
      </g>
      <g
         transform="translate(160.4725,3.8925)"
         style="fill:none;stroke:#000000;stroke-width:0.2"
         id="g93">
        <path
           d="M 7.75,6.1 6.925,7.5289419 H 5.275 L 4.45,6.1 5.275,4.6710581 h 1.65 z"
           id="path85" />
        <path
           d="m 135.6125,6.1 -0.825,1.4289419 h -1.65 L 132.3125,6.1 l 0.825,-1.4289419 h 1.65 z"
           id="path89" />
      </g>
      <g
         transform="translate(317.0525,3.8925)"
         style="fill:none;stroke:#000000;stroke-width:0.2"
         id="g105">
        <path
           d="m 140.0625,-0.0525 v 21.575 5.05 h -9.525 v 19.05 H 135.3 v 19.05 h -9.525 v 19.05 h 9.525 v 19.05 2.525 H 5.05 A 5.1025,5.1025 0 0 1 -0.0525,100.195 V 5.05 A 5.1025,5.1025 0 0 1 5.05,-0.0525 h 104.8275 v 5.155 H 12.2525 V 6.1 A 6.1525,6.1525 0 0 1 6.1,12.2525 H 5.1025 v 80.845 H 6.1 a 6.1525,6.1525 0 0 1 6.1525,6.1525 v 0.9975 H 125.775 v -6.1 h 7 V 93.3 v -7 h -9.525 -5.715 v -5.05 h 5.715 v -7 -7 h -5.715 V 62.2 h 5.715 9.525 v -7 -7 h -4.7625 -5.715 v -5.05 h 5.715 v -7 -7 h -5.715 V 24.1 h 5.715 9.525 v -7 -7 h -9.675 V 5.05 h -8.39 v -5.1025 z"
           id="path95" />
        <path
           d="M 7.75,6.1 6.925,7.5289419 H 5.275 L 4.45,6.1 5.275,4.6710581 h 1.65 z"
           id="path97" />
        <path
           d="m 7.75,99.25 -0.825,1.42894 H 5.275 L 4.45,99.25 5.275,97.821058 h 1.65 z"
           id="path99" />
        <path
           d="m 135.6125,6.1 -0.825,1.4289419 h -1.65 L 132.3125,6.1 l 0.825,-1.4289419 h 1.65 z"
           id="path101" />
        <path
           d="m 132.1875,99.25 -0.825,1.42894 h -1.65 l -0.825,-1.42894 0.825,-1.428942 h 1.65 z"
           id="path103" />
      </g>
      <g
         transform="translate(473.6325,3.8925)"
         style="fill:none;stroke:#000000;stroke-width:0.2"
         id="g117">
        <path
           d="m 140.0625,-0.0525 v 21.575 5.05 h -9.525 v 19.05 H 135.3 v 19.05 h -9.525 v 19.05 h 9.525 v 19.05 2.525 H 5.05 A 5.1025,5.1025 0 0 1 -0.0525,100.195 V 5.05 A 5.1025,5.1025 0 0 1 5.05,-0.0525 Z"
           id="path107" />
        <circle
           cx="6.0999999"
           cy="6.0999999"
           r="0.9975"
           id="circle109" />
        <circle
           cx="6.0999999"
           cy="99.25"
           r="0.9975"
           id="circle111" />
        <circle
           cx="133.96249"
           cy="6.0999999"
           r="0.9975"
           id="circle113" />
        <circle
           cx="130.53751"
           cy="99.25"
           r="0.9975"
           id="circle115" />
      </g>
      <g
         transform="translate(630.2125,3.8925)"
         style="fill:none;stroke:#000000;stroke-width:0.2"
         id="g131">
        <path
           d="m 140.0625,-0.0525 v 21.575 5.05 h -9.525 v 19.05 H 135.3 v 19.05 h -9.525 v 19.05 h 9.525 v 19.05 2.525 H 5.05 A 5.1025,5.1025 0 0 1 -0.0525,100.195 V 5.05 A 5.1025,5.1025 0 0 1 5.05,-0.0525 Z"
           id="path119" />
        <path
           d="M 76.34375,5.1025 H 12.2525 V 6.1 A 6.1525,6.1525 0 0 1 6.1,12.2525 H 5.1025 v 80.845 H 6.1 a 6.1525,6.1525 0 0 1 6.1525,6.1525 v 0.9975 H 125.775 v -6.1 h 7 V 93.3 v -7 h -9.525 -5.715 v -5.05 h 5.715 v -7 -7 h -5.715 V 62.2 h 5.715 9.525 v -7 -7 h -4.7625 -5.715 v -5.05 h 5.715 v -7 -7 h -5.715 V 24.1 h 5.715 9.525 v -7 -7 h -9.675 V 5.05 Z"
           id="path121" />
        <path
           d="M 7.75,6.1 6.925,7.5289419 H 5.275 L 4.45,6.1 5.275,4.6710581 h 1.65 z"
           id="path123" />
        <path
           d="m 7.75,99.25 -0.825,1.42894 H 5.275 L 4.45,99.25 5.275,97.821058 h 1.65 z"
           id="path125" />
        <path
           d="m 135.6125,6.1 -0.825,1.4289419 h -1.65 L 132.3125,6.1 l 0.825,-1.4289419 h 1.65 z"
           id="path127" />
        <path
           d="m 132.1875,99.25 -0.825,1.42894 h -1.65 l -0.825,-1.42894 0.825,-1.428942 h 1.65 z"
           id="path129" />
      </g>
      <g
         transform="translate(3.8925,113.135)"
         style="fill:none;stroke:#000000;stroke-width:0.2"
         id="g209">
        <path
           d="M 147.6375,-0.0525 A 5.1025,5.1025 0 0 1 152.74,5.05 v 95.25 a 5.1025,5.1025 0 0 1 -5.1025,5.1025 H 12.19375 v -21.575 h -9.525 v -19.05 h 9.525 v -19.05 h -4.7625 v -19.05 h 9.525 v -19.05 -2.525 -5.05 z"
           id="path133" />
        <rect
           width="13.895"
           height="13.895"
           x="19.389999"
           y="10.1525"
           id="rect135" />
        <rect
           width="13.895"
           height="13.895"
           x="38.439999"
           y="10.1525"
           id="rect137" />
        <rect
           width="13.895"
           height="13.895"
           x="57.490002"
           y="10.1525"
           id="rect139" />
        <rect
           width="13.895"
           height="13.895"
           x="76.540001"
           y="10.1525"
           id="rect141" />
        <rect
           width="13.895"
           height="13.895"
           x="95.589996"
           y="10.1525"
           id="rect143" />
        <rect
           width="13.895"
           height="13.895"
           x="114.64"
           y="10.1525"
           id="rect145" />
        <rect
           width="13.895"
           height="13.895"
           x="133.69"
           y="10.1525"
           id="rect147" />
        <rect
           width="13.895"
           height="13.895"
           x="9.8649998"
           y="29.202499"
           id="rect149" />
        <rect
           width="13.895"
           height="13.895"
           x="28.915001"
           y="29.202499"
           id="rect151" />
        <rect
           width="13.895"
           height="13.895"
           x="47.965"
           y="29.202499"
           id="rect153" />
        <rect
           width="13.895"
           height="13.895"
           x="67.014999"
           y="29.202499"
           id="rect155" />
        <rect
           width="13.895"
           height="13.895"
           x="86.065002"
           y="29.202499"
           id="rect157" />
        <rect
           width="13.895"
           height="13.895"
           x="105.115"
           y="29.202499"
           id="rect159" />
        <rect
           width="13.895"
           height="13.895"
           x="124.165"
           y="29.202499"
           id="rect161" />
        <rect
           width="13.895"
           height="13.895"
           x="14.6275"
           y="48.252499"
           id="rect163" />
        <rect
           width="13.895"
           height="13.895"
           x="33.677502"
           y="48.252499"
           id="rect165" />
        <rect
           width="13.895"
           height="13.895"
           x="52.727501"
           y="48.252499"
           id="rect167" />
        <rect
           width="13.895"
           height="13.895"
           x="71.777496"
           y="48.252499"
           id="rect169" />
        <rect
           width="13.895"
           height="13.895"
           x="90.827499"
           y="48.252499"
           id="rect171" />
        <rect
           width="13.895"
           height="13.895"
           x="109.8775"
           y="48.252499"
           id="rect173" />
        <rect
           width="13.895"
           height="13.895"
           x="128.92751"
           y="48.252499"
           id="rect175" />
        <rect
           width="13.895"
           height="13.895"
           x="5.1025"
           y="67.302498"
           id="rect177" />
        <rect
           width="13.895"
           height="13.895"
           x="24.1525"
           y="67.302498"
           id="rect179" />
        <rect
           width="13.895"
           height="13.895"
           x="43.202499"
           y="67.302498"
           id="rect181" />
        <rect
           width="13.895"
           height="13.895"
           x="62.252499"
           y="67.302498"
           id="rect183" />
        <rect
           width="13.895"
           height="13.895"
           x="81.302498"
           y="67.302498"
           id="rect185" />
        <rect
           width="13.895"
           height="13.895"
           x="100.3525"
           y="67.302498"
           id="rect187" />
        <rect
           width="13.895"
           height="13.895"
           x="119.4025"
           y="67.302498"
           id="rect189" />
        <rect
           width="13.895"
           height="13.895"
           x="21.77125"
           y="86.352501"
           id="rect191" />
        <rect
           width="13.895"
           height="13.895"
           x="50.346249"
           y="86.352501"
           id="rect193" />
        <rect
           width="13.895"
           height="13.895"
           x="74.158752"
           y="86.352501"
           id="rect195" />
        <rect
           width="13.895"
           height="13.895"
           x="97.971252"
           y="86.352501"
           id="rect197" />
        <rect
           width="13.895"
           height="13.895"
           x="121.78375"
           y="86.352501"
           id="rect199" />
        <circle
           cx="22.821251"
           cy="6.0999999"
           r="0.9975"
           id="circle201" />
        <circle
           cx="16.721251"
           cy="99.25"
           r="0.9975"
           id="circle203" />
        <circle
           cx="146.58749"
           cy="6.0999999"
           r="0.9975"
           id="circle205" />
        <circle
           cx="146.58749"
           cy="99.25"
           r="0.9975"
           id="circle207" />
      </g>
      <g
         transform="translate(160.4725,113.135)"
         style="fill:none;stroke:#000000;stroke-width:0.2"
         id="g221" />
      <g
         transform="translate(317.0525,113.135)"
         style="fill:none;stroke:#000000;stroke-width:0.2"
         id="g233">
        <path
           d="M 147.6375,-0.0525 A 5.1025,5.1025 0 0 1 152.74,5.05 v 95.25 a 5.1025,5.1025 0 0 1 -5.1025,5.1025 H 12.19375 v -21.575 h -9.525 v -19.05 h 9.525 v -19.05 h -4.7625 v -19.05 h 9.525 v -19.05 -2.525 -5.05 H 33.215 V 5.1025 5.05 h -4.29375 v 5.05 h -9.675 v 7 7 h 5.715 v 5.05 h -5.715 -9.525 v 7 7 h 4.7625 5.715 v 5.05 h -5.715 v 7 7 h 5.715 v 5.05 h -5.715 -9.525 v 7 7 h 9.525 5.715 v 5.05 h -5.715 v 7 -0.15 h 7 v 7.15 H 140.435 v -1.05 a 6.1525,6.1525 0 0 1 6.1525,-6.1525 h 0.9975 V 10.1 h -7.0975 V 5.05 H 42.81 v -5.1025 z"
           id="path223" />
        <path
           d="m 24.47125,6.1 -0.825,1.4289419 h -1.65 L 21.17125,6.1 l 0.825,-1.4289419 h 1.65 z"
           id="path225" />
        <path
           d="m 18.37125,99.25 -0.825,1.42894 h -1.65 l -0.825,-1.42894 0.825,-1.428942 h 1.65 z"
           id="path227" />
        <path
           d="m 148.2375,6.1 -0.825,1.4289419 h -1.65 L 144.9375,6.1 l 0.825,-1.4289419 h 1.65 z"
           id="path229" />
        <path
           d="m 148.2375,99.25 -0.825,1.42894 h -1.65 l -0.825,-1.42894 0.825,-1.428942 h 1.65 z"
           id="path231" />
      </g>
      <g
         transform="translate(473.6325,113.135)"
         style="fill:none;stroke:#000000;stroke-width:0.2"
         id="g245">
        <path
           d="M 147.6375,-0.0525 A 5.1025,5.1025 0 0 1 152.74,5.05 v 95.25 a 5.1025,5.1025 0 0 1 -5.1025,5.1025 H 12.19375 v -21.575 h -9.525 v -19.05 h 9.525 v -19.05 h -4.7625 v -19.05 h 9.525 v -19.05 -2.525 -5.05 z"
           id="path235" />
        <circle
           cx="22.821251"
           cy="6.0999999"
           r="0.9975"
           id="circle237" />
        <circle
           cx="16.721251"
           cy="99.25"
           r="0.9975"
           id="circle239" />
        <circle
           cx="146.58749"
           cy="6.0999999"
           r="0.9975"
           id="circle241" />
        <circle
           cx="146.58749"
           cy="99.25"
           r="0.9975"
           id="circle243" />
      </g>
      <g
         transform="translate(630.2125,113.135)"
         style="fill:none;stroke:#000000;stroke-width:0.2"
         id="g259">
        <path
           d="M 147.6375,-0.0525 A 5.1025,5.1025 0 0 1 152.74,5.05 v 95.25 a 5.1025,5.1025 0 0 1 -5.1025,5.1025 H 12.19375 v -21.575 h -9.525 v -19.05 h 9.525 v -19.05 h -4.7625 v -19.05 h 9.525 v -19.05 -2.525 -5.05 z"
           id="path247" />
        <path
           d="M 76.34375,5.1025 V 5.05 h -47.4225 v 5.05 h -9.675 v 7 7 h 5.715 v 5.05 h -5.715 -9.525 v 7 7 h 4.7625 5.715 v 5.05 h -5.715 v 7 7 h 5.715 v 5.05 h -5.715 -9.525 v 7 7 h 9.525 5.715 v 5.05 h -5.715 v 7 -0.15 h 7 v 7.15 H 140.435 v -1.05 a 6.1525,6.1525 0 0 1 6.1525,-6.1525 h 0.9975 V 10.1 h -7.0975 V 5.05 Z"
           id="path249" />
        <path
           d="m 24.47125,6.1 -0.825,1.4289419 h -1.65 L 21.17125,6.1 l 0.825,-1.4289419 h 1.65 z"
           id="path251" />
        <path
           d="m 18.37125,99.25 -0.825,1.42894 h -1.65 l -0.825,-1.42894 0.825,-1.428942 h 1.65 z"
           id="path253" />
        <path
           d="m 148.2375,6.1 -0.825,1.4289419 h -1.65 L 144.9375,6.1 l 0.825,-1.4289419 h 1.65 z"
           id="path255" />
        <path
           d="m 148.2375,99.25 -0.825,1.42894 h -1.65 l -0.825,-1.42894 0.825,-1.428942 h 1.65 z"
           id="path257" />
      </g>
    </g>
    <path
       d="m 104.03907,133.68726 -2.57034,13.56463 -0.60163,3.17504 -5.98853,-1.13477 -2.269526,11.97712 2.994273,0.56738 -2.269513,11.97712 -5.98856,-1.13476 -2.26953,11.97712 5.98856,1.13476 -2.26953,11.97712 -0.30081,1.58751 L 6.6031781,183.83817 A 3.26513,3.26513 0 0 1 4.0030223,180.02223 L 15.338149,120.20267 a 3.26513,3.26513 0 0 1 3.815931,-2.60016 z"
       id="path9-3"
       style="fill:none;stroke:#000000;stroke-width:0.127982" />
    <rect
       width="8.8915205"
       height="8.8915205"
       x="43.795135"
       y="118.51034"
       id="rect11-6"
       style="fill:none;stroke:#000000;stroke-width:0.127982"
       transform="rotate(10.729687)" />
    <rect
       width="8.8915205"
       height="8.8915205"
       x="55.985409"
       y="118.51034"
       id="rect13-1"
       style="fill:none;stroke:#000000;stroke-width:0.127982"
       transform="rotate(10.729687)" />
    <rect
       width="8.8915205"
       height="8.8915205"
       x="68.175652"
       y="118.51034"
       id="rect15-2"
       style="fill:none;stroke:#000000;stroke-width:0.127982"
       transform="rotate(10.729687)" />
    <rect
       width="8.8915205"
       height="8.8915205"
       x="80.365692"
       y="118.51034"
       id="rect17-9"
       style="fill:none;stroke:#000000;stroke-width:0.127982"
       transform="rotate(10.729687)" />
    <rect
       width="8.8915205"
       height="8.8915205"
       x="92.556053"
       y="118.51034"
       id="rect19-3"
       style="fill:none;stroke:#000000;stroke-width:0.127982"
       transform="rotate(10.729687)" />
    <rect
       width="8.8915205"
       height="8.8915205"
       x="104.74628"
       y="118.51034"
       id="rect21-1"
       style="fill:none;stroke:#000000;stroke-width:0.127982"
       transform="rotate(10.729687)" />
    <rect
       width="8.8915205"
       height="8.8915205"
       x="116.93653"
       y="118.51034"
       id="rect23-9"
       style="fill:none;stroke:#000000;stroke-width:0.127982"
       transform="rotate(10.729687)" />
    <rect
       width="8.8915205"
       height="8.8915205"
       x="49.890274"
       y="130.70074"
       id="rect25-4"
       style="fill:none;stroke:#000000;stroke-width:0.127982"
       transform="rotate(10.729687)" />
    <rect
       width="8.8915205"
       height="8.8915205"
       x="62.080528"
       y="130.70074"
       id="rect27-7"
       style="fill:none;stroke:#000000;stroke-width:0.127982"
       transform="rotate(10.729687)" />
    <rect
       width="8.8915205"
       height="8.8915205"
       x="74.270554"
       y="130.70074"
       id="rect29-8"
       style="fill:none;stroke:#000000;stroke-width:0.127982"
       transform="rotate(10.729687)" />
    <rect
       width="8.8915205"
       height="8.8915205"
       x="86.460831"
       y="130.70074"
       id="rect31-4"
       style="fill:none;stroke:#000000;stroke-width:0.127982"
       transform="rotate(10.729687)" />
    <rect
       width="8.8915205"
       height="8.8915205"
       x="98.651161"
       y="130.70074"
       id="rect33-5"
       style="fill:none;stroke:#000000;stroke-width:0.127982"
       transform="rotate(10.729687)" />
    <rect
       width="8.8915205"
       height="8.8915205"
       x="110.84141"
       y="130.70074"
       id="rect35-0"
       style="fill:none;stroke:#000000;stroke-width:0.127982"
       transform="rotate(10.729687)" />
    <rect
       width="8.8915205"
       height="8.8915205"
       x="40.747604"
       y="142.89093"
       id="rect37-3"
       style="fill:none;stroke:#000000;stroke-width:0.127982"
       transform="rotate(10.729687)" />
    <rect
       width="8.8915205"
       height="8.8915205"
       x="52.937843"
       y="142.89093"
       id="rect39-6"
       style="fill:none;stroke:#000000;stroke-width:0.127982"
       transform="rotate(10.729687)" />
    <rect
       width="8.8915205"
       height="8.8915205"
       x="65.128159"
       y="142.89093"
       id="rect41-1"
       style="fill:none;stroke:#000000;stroke-width:0.127982"
       transform="rotate(10.729687)" />
    <rect
       width="8.8915205"
       height="8.8915205"
       x="77.318123"
       y="142.89093"
       id="rect43-0"
       style="fill:none;stroke:#000000;stroke-width:0.127982"
       transform="rotate(10.729687)" />
    <rect
       width="8.8915205"
       height="8.8915205"
       x="89.508362"
       y="142.89093"
       id="rect45-6"
       style="fill:none;stroke:#000000;stroke-width:0.127982"
       transform="rotate(10.729687)" />
    <rect
       width="8.8915205"
       height="8.8915205"
       x="101.69873"
       y="142.89093"
       id="rect47-3"
       style="fill:none;stroke:#000000;stroke-width:0.127982"
       transform="rotate(10.729687)" />
    <rect
       width="8.8915205"
       height="8.8915205"
       x="113.88894"
       y="142.89093"
       id="rect49-2"
       style="fill:none;stroke:#000000;stroke-width:0.127982"
       transform="rotate(10.729687)" />
    <rect
       width="8.8915205"
       height="8.8915205"
       x="46.842705"
       y="155.08116"
       id="rect51-0"
       style="fill:none;stroke:#000000;stroke-width:0.127982"
       transform="rotate(10.729687)" />
    <rect
       width="8.8915205"
       height="8.8915205"
       x="59.03294"
       y="155.08116"
       id="rect53-6"
       style="fill:none;stroke:#000000;stroke-width:0.127982"
       transform="rotate(10.729687)" />
    <rect
       width="8.8915205"
       height="8.8915205"
       x="71.22303"
       y="155.08116"
       id="rect55-1"
       style="fill:none;stroke:#000000;stroke-width:0.127982"
       transform="rotate(10.729687)" />
    <rect
       width="8.8915205"
       height="8.8915205"
       x="83.413261"
       y="155.08116"
       id="rect57-5"
       style="fill:none;stroke:#000000;stroke-width:0.127982"
       transform="rotate(10.729687)" />
    <rect
       width="8.8915205"
       height="8.8915205"
       x="95.6036"
       y="155.08116"
       id="rect59-5"
       style="fill:none;stroke:#000000;stroke-width:0.127982"
       transform="rotate(10.729687)" />
    <rect
       width="8.8915205"
       height="8.8915205"
       x="107.79385"
       y="155.08116"
       id="rect61-4"
       style="fill:none;stroke:#000000;stroke-width:0.127982"
       transform="rotate(10.729687)" />
    <rect
       width="8.8915205"
       height="8.8915205"
       x="45.318939"
       y="167.27139"
       id="rect63-7"
       style="fill:none;stroke:#000000;stroke-width:0.127982"
       transform="rotate(10.729687)" />
    <rect
       width="8.8915205"
       height="8.8915205"
       x="60.556755"
       y="167.27139"
       id="rect65-6"
       style="fill:none;stroke:#000000;stroke-width:0.127982"
       transform="rotate(10.729687)" />
    <rect
       width="8.8915205"
       height="8.8915205"
       x="75.794357"
       y="167.27139"
       id="rect67-5"
       style="fill:none;stroke:#000000;stroke-width:0.127982"
       transform="rotate(10.729687)" />
    <rect
       width="8.8915205"
       height="8.8915205"
       x="91.032196"
       y="167.27139"
       id="rect69-6"
       style="fill:none;stroke:#000000;stroke-width:0.127982"
       transform="rotate(10.729687)" />
    <rect
       width="8.8915205"
       height="8.8915205"
       x="109.3176"
       y="167.27139"
       id="rect71-9"
       style="fill:none;stroke:#000000;stroke-width:0.127982"
       transform="rotate(10.729687)" />
    <circle
       cx="41.385872"
       cy="115.91706"
       r="0.63830811"
       id="circle73-3"
       style="fill:none;stroke:#000000;stroke-width:0.127982"
       transform="rotate(10.729687)" />
    <circle
       cx="41.385872"
       cy="175.52463"
       r="0.63830811"
       id="circle75-7"
       style="fill:none;stroke:#000000;stroke-width:0.127982"
       transform="rotate(10.729687)" />
    <circle
       cx="123.20601"
       cy="115.91706"
       r="0.63830811"
       id="circle77-4"
       style="fill:none;stroke:#000000;stroke-width:0.127982"
       transform="rotate(10.729687)" />
    <circle
       cx="121.01432"
       cy="175.52463"
       r="0.63830811"
       id="circle79-5"
       style="fill:none;stroke:#000000;stroke-width:0.127982"
       transform="rotate(10.729687)" />
    <path
       d="m 188.99408,108.10298 a 3.26513,3.26513 0 0 1 3.9529,2.38676 l 14.61776,59.1724 a 3.26513,3.26513 0 0 1 -2.38676,3.95291 l -84.14207,20.7862 -3.31106,-13.4031 -5.91724,1.46178 -2.92356,-11.83448 5.91725,-1.46178 -2.92356,-11.83447 -2.95862,0.73088 -2.92355,-11.83448 5.91724,-1.46178 -2.92355,-11.83448 -0.38751,-1.56861 -0.77501,-3.13722 z"
       id="path133-2"
       style="fill:none;stroke:#000000;stroke-width:0.127982" />
    <rect
       width="8.8915205"
       height="8.8915205"
       x="75.485756"
       y="156.80424"
       id="rect135-5"
       style="fill:none;stroke:#000000;stroke-width:0.127982"
       transform="rotate(-13.876346)" />
    <rect
       width="8.8915205"
       height="8.8915205"
       x="87.675995"
       y="156.80424"
       id="rect137-4"
       style="fill:none;stroke:#000000;stroke-width:0.127982"
       transform="rotate(-13.876346)" />
    <rect
       width="8.8915205"
       height="8.8915205"
       x="99.866257"
       y="156.80424"
       id="rect139-7"
       style="fill:none;stroke:#000000;stroke-width:0.127982"
       transform="rotate(-13.876346)" />
    <rect
       width="8.8915205"
       height="8.8915205"
       x="112.05653"
       y="156.80424"
       id="rect141-4"
       style="fill:none;stroke:#000000;stroke-width:0.127982"
       transform="rotate(-13.876346)" />
    <rect
       width="8.8915205"
       height="8.8915205"
       x="124.24681"
       y="156.80424"
       id="rect143-4"
       style="fill:none;stroke:#000000;stroke-width:0.127982"
       transform="rotate(-13.876346)" />
    <rect
       width="8.8915205"
       height="8.8915205"
       x="136.43707"
       y="156.80424"
       id="rect145-3"
       style="fill:none;stroke:#000000;stroke-width:0.127982"
       transform="rotate(-13.876346)" />
    <rect
       width="8.8915205"
       height="8.8915205"
       x="148.62732"
       y="156.80424"
       id="rect147-0"
       style="fill:none;stroke:#000000;stroke-width:0.127982"
       transform="rotate(-13.876346)" />
    <rect
       width="8.8915205"
       height="8.8915205"
       x="69.389992"
       y="168.9944"
       id="rect149-7"
       style="fill:none;stroke:#000000;stroke-width:0.127982"
       transform="rotate(-13.876346)" />
    <rect
       width="8.8915205"
       height="8.8915205"
       x="81.580879"
       y="168.9944"
       id="rect151-8"
       style="fill:none;stroke:#000000;stroke-width:0.127982"
       transform="rotate(-13.876346)" />
    <rect
       width="8.8915205"
       height="8.8915205"
       x="93.771133"
       y="168.9944"
       id="rect153-6"
       style="fill:none;stroke:#000000;stroke-width:0.127982"
       transform="rotate(-13.876346)" />
    <rect
       width="8.8915205"
       height="8.8915205"
       x="105.96134"
       y="168.9944"
       id="rect155-8"
       style="fill:none;stroke:#000000;stroke-width:0.127982"
       transform="rotate(-13.876346)" />
    <rect
       width="8.8915205"
       height="8.8915205"
       x="118.15163"
       y="168.9944"
       id="rect157-8"
       style="fill:none;stroke:#000000;stroke-width:0.127982"
       transform="rotate(-13.876346)" />
    <rect
       width="8.8915205"
       height="8.8915205"
       x="130.34195"
       y="168.9944"
       id="rect159-4"
       style="fill:none;stroke:#000000;stroke-width:0.127982"
       transform="rotate(-13.876346)" />
    <rect
       width="8.8915205"
       height="8.8915205"
       x="142.5322"
       y="168.9944"
       id="rect161-3"
       style="fill:none;stroke:#000000;stroke-width:0.127982"
       transform="rotate(-13.876346)" />
    <rect
       width="8.8915205"
       height="8.8915205"
       x="72.437759"
       y="181.18471"
       id="rect163-1"
       style="fill:none;stroke:#000000;stroke-width:0.127982"
       transform="rotate(-13.876346)" />
    <rect
       width="8.8915205"
       height="8.8915205"
       x="84.628448"
       y="181.18471"
       id="rect165-4"
       style="fill:none;stroke:#000000;stroke-width:0.127982"
       transform="rotate(-13.876346)" />
    <rect
       width="8.8915205"
       height="8.8915205"
       x="96.81868"
       y="181.18471"
       id="rect167-9"
       style="fill:none;stroke:#000000;stroke-width:0.127982"
       transform="rotate(-13.876346)" />
    <rect
       width="8.8915205"
       height="8.8915205"
       x="109.00894"
       y="181.18471"
       id="rect169-2"
       style="fill:none;stroke:#000000;stroke-width:0.127982"
       transform="rotate(-13.876346)" />
    <rect
       width="8.8915205"
       height="8.8915205"
       x="121.19921"
       y="181.18471"
       id="rect171-0"
       style="fill:none;stroke:#000000;stroke-width:0.127982"
       transform="rotate(-13.876346)" />
    <rect
       width="8.8915205"
       height="8.8915205"
       x="133.38953"
       y="181.18471"
       id="rect173-6"
       style="fill:none;stroke:#000000;stroke-width:0.127982"
       transform="rotate(-13.876346)" />
    <rect
       width="8.8915205"
       height="8.8915205"
       x="145.57976"
       y="181.18471"
       id="rect175-8"
       style="fill:none;stroke:#000000;stroke-width:0.127982"
       transform="rotate(-13.876346)" />
    <rect
       width="8.8915205"
       height="8.8915205"
       x="66.342934"
       y="193.37495"
       id="rect177-9"
       style="fill:none;stroke:#000000;stroke-width:0.127982"
       transform="rotate(-13.876346)" />
    <rect
       width="8.8915205"
       height="8.8915205"
       x="78.533325"
       y="193.37495"
       id="rect179-2"
       style="fill:none;stroke:#000000;stroke-width:0.127982"
       transform="rotate(-13.876346)" />
    <rect
       width="8.8915205"
       height="8.8915205"
       x="90.723564"
       y="193.37495"
       id="rect181-6"
       style="fill:none;stroke:#000000;stroke-width:0.127982"
       transform="rotate(-13.876346)" />
    <rect
       width="8.8915205"
       height="8.8915205"
       x="102.91383"
       y="193.37495"
       id="rect183-6"
       style="fill:none;stroke:#000000;stroke-width:0.127982"
       transform="rotate(-13.876346)" />
    <rect
       width="8.8915205"
       height="8.8915205"
       x="115.10404"
       y="193.37495"
       id="rect185-4"
       style="fill:none;stroke:#000000;stroke-width:0.127982"
       transform="rotate(-13.876346)" />
    <rect
       width="8.8915205"
       height="8.8915205"
       x="127.29439"
       y="193.37495"
       id="rect187-9"
       style="fill:none;stroke:#000000;stroke-width:0.127982"
       transform="rotate(-13.876346)" />
    <rect
       width="8.8915205"
       height="8.8915205"
       x="139.48463"
       y="193.37495"
       id="rect189-5"
       style="fill:none;stroke:#000000;stroke-width:0.127982"
       transform="rotate(-13.876346)" />
    <rect
       width="8.8915205"
       height="8.8915205"
       x="77.009544"
       y="205.56526"
       id="rect191-0"
       style="fill:none;stroke:#000000;stroke-width:0.127982"
       transform="rotate(-13.876346)" />
    <rect
       width="8.8915205"
       height="8.8915205"
       x="95.294899"
       y="205.56526"
       id="rect193-4"
       style="fill:none;stroke:#000000;stroke-width:0.127982"
       transform="rotate(-13.876346)" />
    <rect
       width="8.8915205"
       height="8.8915205"
       x="110.53274"
       y="205.56526"
       id="rect195-8"
       style="fill:none;stroke:#000000;stroke-width:0.127982"
       transform="rotate(-13.876346)" />
    <rect
       width="8.8915205"
       height="8.8915205"
       x="125.77058"
       y="205.56526"
       id="rect197-7"
       style="fill:none;stroke:#000000;stroke-width:0.127982"
       transform="rotate(-13.876346)" />
    <rect
       width="8.8915205"
       height="8.8915205"
       x="141.00842"
       y="205.56526"
       id="rect199-1"
       style="fill:none;stroke:#000000;stroke-width:0.127982"
       transform="rotate(-13.876346)" />
    <circle
       cx="77.681435"
       cy="154.21101"
       r="0.63830811"
       id="circle201-7"
       style="fill:none;stroke:#000000;stroke-width:0.127982"
       transform="rotate(-13.876346)" />
    <circle
       cx="73.777901"
       cy="213.8185"
       r="0.63830811"
       id="circle203-2"
       style="fill:none;stroke:#000000;stroke-width:0.127982"
       transform="rotate(-13.876346)" />
    <circle
       cx="156.88054"
       cy="154.21101"
       r="0.63830811"
       id="circle205-7"
       style="fill:none;stroke:#000000;stroke-width:0.127982"
       transform="rotate(-13.876346)" />
    <circle
       cx="156.88054"
       cy="213.8185"
       r="0.63830811"
       id="circle207-2"
       style="fill:none;stroke:#000000;stroke-width:0.127982"
       transform="rotate(-13.876346)" />
    <text
       xml:space="preserve"
       style="font-style:normal;font-weight:normal;font-size:20.4914px;line-height:1.25;font-family:sans-serif;fill:#000000;fill-opacity:1;stroke:none;stroke-width:0.11822"
       x="106.3102"
       y="106.30727"
       id="text5256"><tspan
         sodipodi:role="line"
         id="tspan5254"
         style="font-style:normal;font-variant:normal;font-weight:normal;font-stretch:normal;font-size:20.4914px;font-family:IPAPMincho;-inkscape-font-specification:IPAPMincho;text-align:center;text-anchor:middle;stroke-width:0.11822"
         x="106.3102"
         y="106.30727">Puzzle Keyboard</tspan></text>
    <path
       style="fill:#f2f2f2;stroke-width:0.217701"
       d="M 21.497096,84.464772 C 21.218109,84.411592 20.613876,83.992175 20.154358,83.532663 19.461633,82.839924 19.295365,82.49886 19.181186,81.536362 19.105456,80.8979 19.072895,66.70937 19.108856,50.006293 l 0.06537,-30.369237 0.506992,-0.710811 c 0.278853,-0.390947 0.817662,-0.880773 1.197351,-1.088504 0.647696,-0.354341 3.378746,-0.381218 44.17606,-0.434745 l 43.485671,-0.05705 v 8.384103 8.384102 h -3.04781 -3.0478 v 6.313318 6.313318 h 1.5239 1.5239 v 5.877916 5.877918 h -3.0478 -3.047804 v 6.31332 6.313319 h 3.047804 3.0478 v 6.748718 6.748718 L 63.748435,84.591064 C 40.789193,84.574747 21.776083,84.517936 21.497096,84.464791 Z m 2.031151,-3.653842 c 0,-0.548574 -0.0946,-0.664007 -0.591076,-0.721253 -0.476469,-0.0549 -0.617639,0.03763 -0.72803,0.477455 -0.185426,0.738818 0.04908,1.043868 0.740981,0.963803 0.482363,-0.0558 0.578125,-0.175091 0.578125,-0.720005 z m 12.300092,-3.809762 v -4.571713 h -4.571713 -4.57172 v 4.571713 4.571713 h 4.57172 4.571713 z m 15.239042,0 v -4.571713 h -4.571714 -4.571719 v 4.571713 4.571713 h 4.571719 4.571714 z m 15.239041,0 v -4.571713 h -4.571713 -4.571713 v 4.571713 4.571713 h 4.571713 4.571713 z m 15.239042,0 v -4.571713 h -4.571713 -4.571714 v 4.571713 4.571713 h 4.571714 4.571713 z m 18.286829,0 v -4.571713 h -4.571686 -4.571713 v 4.571713 4.571713 h 4.571713 4.571686 z m 3.374337,3.809762 c 0,-0.579872 -0.0729,-0.653103 -0.65011,-0.653103 -0.45409,0 -0.67299,0.118716 -0.72595,0.393691 -0.13598,0.706138 0.13966,1.054728 0.77615,0.981516 0.50611,-0.05823 0.59991,-0.17113 0.59991,-0.722104 z M 37.352235,64.809937 v -4.571716 h -4.571713 -4.571713 v 4.571716 4.571713 h 4.571713 4.571713 z m 12.191243,0 v -4.571716 h -4.571713 -4.571713 v 4.571716 4.571713 h 4.571713 4.571713 z m 12.191231,0 v -4.571716 h -4.571713 -4.57172 v 4.571716 4.571713 h 4.57172 4.571713 z m 12.191224,0 v -4.571716 h -4.571713 -4.5717 v 4.571716 4.571713 h 4.5717 4.571713 z m 12.191241,0 v -4.571716 h -4.57171 -4.571713 v 4.571716 4.571713 h 4.571713 4.57171 z m 12.191208,0 v -4.571716 h -4.571688 -4.57172 v 4.571716 4.571713 h 4.57172 4.571688 z M 31.256626,52.6187 v -4.571713 h -4.57172 -4.571713 v 4.571713 4.571713 h 4.571713 4.57172 z m 12.191224,0 v -4.571713 h -4.571713 -4.571713 v 4.571713 4.571713 h 4.571713 4.571713 z m 12.191244,0 v -4.571713 h -4.571713 -4.571714 v 4.571713 4.571713 h 4.571714 4.571713 z m 12.19123,0 v -4.571713 h -4.571719 -4.571713 v 4.571713 4.571713 h 4.571713 4.571719 z m 12.191244,0 v -4.571713 h -4.57172 -4.571713 v 4.571713 4.571713 h 4.571713 4.57172 z m 12.191226,0 v -4.571713 h -4.57172 -4.571708 v 4.571713 4.571713 h 4.571708 4.57172 z m 12.191206,0 V 48.046987 H 99.832293 95.260607 V 52.6187 57.190413 H 99.832293 104.404 Z M 40.400052,40.427466 v -4.571713 h -4.571713 -4.571713 v 4.571713 4.571712 h 4.571713 4.571713 z m 12.191224,0 V 35.855753 H 48.019563 43.44785 v 4.571713 4.571712 h 4.571713 4.571713 z m 12.191244,0 v -4.571713 h -4.571713 -4.571713 v 4.571713 4.571712 h 4.571713 4.571713 z m 12.191231,0 v -4.571713 h -4.571714 -4.571713 v 4.571713 4.571712 h 4.571713 4.571714 z m 12.191223,0 v -4.571713 h -4.57169 -4.571716 v 4.571713 4.571712 h 4.571716 4.57169 z m 12.191206,0 v -4.571713 h -4.571689 -4.571697 v 4.571713 4.571712 h 4.571697 4.571689 z M 34.304424,28.236231 v -4.571713 h -4.5717 -4.571714 v 4.571713 4.571713 h 4.571714 4.5717 z m 12.191243,0 v -4.571713 h -4.571719 -4.571713 v 4.571713 4.571713 h 4.571713 4.571719 z m 12.191225,0 v -4.571713 h -4.571713 -4.571701 v 4.571713 4.571713 h 4.571701 4.571713 z m 12.191243,0 v -4.571713 h -4.571713 -4.571713 v 4.571713 4.571713 h 4.571713 4.571713 z m 12.191231,0 v -4.571713 h -4.57172 -4.571713 v 4.571713 4.571713 h 4.571713 4.57172 z m 12.191241,0 v -4.571713 h -4.571713 -4.57172 v 4.571713 4.571713 h 4.57172 4.571713 z m 12.191193,0 v -4.571713 h -4.57171 -4.571708 v 4.571713 4.571713 h 4.571708 4.57171 z m -83.923553,-7.07527 c 0,-0.54357 -0.0873,-0.653102 -0.520527,-0.653102 -0.608699,0 -1.024844,0.543756 -0.821552,1.073492 0.09686,0.252428 0.333674,0.348703 0.742165,0.301717 0.506097,-0.05821 0.599914,-0.171133 0.599914,-0.722107 z m 81.921613,0.08224 c 0.0439,-0.378847 -0.0579,-0.618495 -0.30281,-0.712464 -0.59941,-0.230013 -1.17846,0.06904 -1.17846,0.608615 0,0.65012 0.19479,0.817019 0.86267,0.739135 0.41336,-0.04821 0.56904,-0.208086 0.6186,-0.635286 z"
       id="path21556" />
    <path
       style="fill:#f2f2f2;stroke-width:0.217701"
       d="m 105.7102,77.65637 v -6.96852 h -3.04781 -3.047817 v -5.877913 -5.87792 h 3.047817 3.04781 V 52.6187 46.305382 h -1.52391 -1.5239 v -5.877916 -5.877917 h 3.04781 3.04781 V 25.950375 17.3512 h 41.94749 c 41.91052,0 41.94829,3.89e-4 42.87394,0.448487 0.674,0.326282 1.04924,0.702169 1.37714,1.379494 0.45018,0.929954 0.45062,0.966274 0.39405,32.08182 -0.0565,31.078714 -0.0577,31.152207 -0.50547,31.751974 -0.24687,0.33064 -0.7194,0.803142 -1.05004,1.050012 l -0.60116,0.44885 -43.74189,0.0565 -43.74187,0.0565 z m 3.37436,3.15456 c 0,-0.579872 -0.0729,-0.653103 -0.65012,-0.653103 -0.4527,0 -0.67301,0.11887 -0.72551,0.391438 -0.10484,0.544364 0.37752,1.057371 0.92118,0.979699 0.34539,-0.04934 0.45445,-0.221677 0.45445,-0.718034 z m 11.64699,-3.809762 v -4.571713 h -4.57172 -4.57171 v 4.571713 4.571713 h 4.57171 4.57172 z m 18.28684,0 v -4.571713 h -4.57172 -4.57171 v 4.571713 4.571713 h 4.57171 4.57172 z m 15.23904,0 v -4.571713 h -4.57171 -4.57172 v 4.571713 4.571713 h 4.57172 4.57171 z m 15.23904,0 v -4.571713 h -4.57171 -4.57171 v 4.571713 4.571713 h 4.57171 4.57171 z m 15.23905,0 v -4.571713 h -4.57172 -4.5717 v 4.571713 4.571713 h 4.5717 4.57172 z m 7.36644,4.380483 c 0.16015,-0.101509 0.25811,-0.418391 0.2177,-0.704193 -0.0587,-0.4153 -0.204,-0.519631 -0.72359,-0.519631 -0.45407,0 -0.67299,0.118716 -0.72593,0.393691 -0.16912,0.878145 0.47318,1.311005 1.23182,0.830133 z M 110.0642,64.809937 v -4.571716 h -4.57171 -4.5717 v 4.571716 4.571713 h 4.5717 4.57171 z m 12.19125,0 v -4.571716 h -4.57172 -4.57171 v 4.571716 4.571713 h 4.57171 4.57172 z m 12.19122,0 v -4.571716 h -4.57171 -4.57171 v 4.571716 4.571713 h 4.57171 4.57171 z m 12.19125,0 v -4.571716 h -4.57172 -4.57171 v 4.571716 4.571713 h 4.57171 4.57172 z m 12.19123,0 v -4.571716 h -4.57172 -4.57171 v 4.571716 4.571713 h 4.57171 4.57172 z m 12.19124,0 v -4.571716 h -4.57171 -4.57172 v 4.571716 4.571713 h 4.57172 4.57171 z m 12.19123,0 v -4.571716 h -4.57172 -4.57171 v 4.571716 4.571713 h 4.57171 4.57172 z M 116.15983,52.6187 v -4.571713 h -4.57171 -4.57171 v 4.571713 4.571713 h 4.57171 4.57171 z m 12.19123,0 v -4.571713 h -4.57171 -4.57172 v 4.571713 4.571713 h 4.57172 4.57171 z m 12.19123,0 v -4.571713 h -4.5717 -4.57172 v 4.571713 4.571713 h 4.57172 4.5717 z m 12.19124,0 v -4.571713 h -4.57171 -4.57172 v 4.571713 4.571713 h 4.57172 4.57171 z m 12.19123,0 v -4.571713 h -4.57171 -4.5717 v 4.571713 4.571713 h 4.5717 4.57171 z m 12.19124,0 v -4.571713 h -4.57171 -4.57172 v 4.571713 4.571713 h 4.57172 4.57171 z m 12.19123,0 v -4.571713 h -4.57171 -4.57172 v 4.571713 4.571713 h 4.57172 4.57171 z M 113.11202,40.427466 v -4.571713 h -4.57172 -4.57171 v 4.571713 4.571712 h 4.57171 4.57172 z m 12.19123,0 v -4.571713 h -4.5717 -4.57172 v 4.571713 4.571712 h 4.57172 4.5717 z m 12.19124,0 v -4.571713 h -4.57171 -4.57172 v 4.571713 4.571712 h 4.57172 4.57171 z m 12.19123,0 v -4.571713 h -4.57172 -4.57171 v 4.571713 4.571712 h 4.57171 4.57172 z m 12.19124,0 v -4.571713 h -4.57171 -4.57172 v 4.571713 4.571712 h 4.57172 4.57171 z m 12.19123,0 v -4.571713 h -4.57172 -4.57171 v 4.571713 4.571712 h 4.57171 4.57172 z m 12.19124,0 v -4.571713 h -4.57171 -4.57172 v 4.571713 4.571712 h 4.57172 4.57171 z m -67.0518,-12.191235 v -4.571713 h -4.57171 -4.57172 v 4.571713 4.571713 h 4.57172 4.57171 z m 12.19124,0 v -4.571713 h -4.57171 -4.57171 v 4.571713 4.571713 h 4.57171 4.57171 z m 12.19123,0 v -4.571713 h -4.57171 -4.57172 v 4.571713 4.571713 h 4.57172 4.57171 z m 12.19125,0 v -4.571713 h -4.57172 -4.57171 v 4.571713 4.571713 h 4.57171 4.57172 z m 12.19122,0 v -4.571713 h -4.57171 -4.57171 v 4.571713 4.571713 h 4.57171 4.57171 z m 12.19123,0 v -4.571713 h -4.5717 -4.57171 v 4.571713 4.571713 h 4.57171 4.5717 z m 12.19125,0 v -4.571713 h -4.57172 -4.57171 v 4.571713 4.571713 h 4.57171 4.57172 z m -79.35188,-7.07527 c 0,-0.57987 -0.0729,-0.653102 -0.65013,-0.653102 -0.45407,0 -0.67297,0.118717 -0.72593,0.393692 -0.13599,0.706139 0.13967,1.054728 0.77615,0.981517 0.5061,-0.05821 0.59991,-0.171133 0.59991,-0.722107 z m 79.24303,0 c 0,-0.57987 -0.0729,-0.653102 -0.65013,-0.653102 -0.45407,0 -0.67299,0.118717 -0.72593,0.393692 -0.13599,0.706139 0.13966,1.054728 0.77614,0.981517 0.5061,-0.05821 0.59992,-0.171133 0.59992,-0.722107 z"
       id="path21595" />
    <path
       style="fill:#f2f2f2;stroke-width:0.217701"
       d="m 119.56531,187.68218 c -0.88182,-3.54308 -1.66092,-6.53563 -1.73134,-6.65013 -0.0762,-0.12395 -1.24867,0.0725 -2.89781,0.48546 -1.5924,0.39878 -2.84562,0.61135 -2.94826,0.50008 -0.28837,-0.31268 -2.85228,-11.04882 -2.67647,-11.20749 0.0881,-0.0796 1.31528,-0.42262 2.72698,-0.76237 1.41171,-0.33976 2.65104,-0.67007 2.75408,-0.73403 0.23872,-0.1482 -2.66428,-12.08983 -2.93905,-12.08983 -0.11261,0 -0.77566,0.13118 -1.47342,0.29152 -0.69777,0.16033 -1.29783,0.2583 -1.33347,0.2177 -0.0853,-0.0971 -2.73153,-10.96275 -2.73153,-11.21566 0,-0.10721 1.30669,-0.51579 2.90376,-0.90797 l 2.90376,-0.71306 -2.01366,-8.20451 c -1.1075,-4.51248 -1.97402,-8.24464 -1.9256,-8.2937 0.0484,-0.0491 18.38371,-4.63074 40.74513,-10.18152 29.85641,-7.41126 40.84972,-10.05885 41.38219,-9.9663 0.39879,0.0693 1.07248,0.44441 1.49712,0.83355 l 0.77204,0.70753 7.4795,30.24722 c 5.47017,22.12147 7.4446,30.43782 7.34959,30.95665 -0.15806,0.86316 -0.78503,1.69686 -1.58859,2.11239 -0.46275,0.23931 -84.03491,21.01641 -84.53471,21.01641 -0.0643,0 -0.83843,-2.89888 -1.72024,-6.44194 z m 4.04718,2.554 c 0.21728,-0.68461 -0.0953,-1.14964 -0.72375,-1.07652 -0.57768,0.0672 -0.83065,0.56108 -0.59796,1.16742 0.1777,0.46308 1.16748,0.39501 1.32171,-0.0909 z m 11.37331,-2.51322 c 0.0895,-0.072 -2.05235,-8.6338 -2.19572,-8.77716 -0.25779,-0.2578 -8.84131,1.95639 -8.84131,2.28069 0,0.25705 1.8467,7.84978 2.05837,8.46305 0.0574,0.16615 1.52104,-0.10741 4.5102,-0.84295 2.43393,-0.59891 4.44472,-1.10454 4.46846,-1.12363 z m 13.50872,-3.33027 c 2.79665,-0.68965 4.19074,-1.12877 4.19074,-1.32 0,-0.25697 -1.8487,-7.85419 -2.05982,-8.46482 -0.0592,-0.17106 -1.47993,0.0965 -4.5102,0.84928 -2.43312,0.60447 -4.43955,1.10871 -4.45874,1.12055 -0.0282,0.0174 1.34943,5.80641 1.96089,8.23972 0.0827,0.32928 0.27103,0.60094 0.41841,0.60369 0.14738,0.003 2.15382,-0.46003 4.45872,-1.02842 z m 14.85503,-3.66291 c 2.21345,-0.55227 4.06003,-1.03972 4.10355,-1.08323 0.0864,-0.0864 -1.92467,-8.64525 -2.06925,-8.80666 -0.0683,-0.0762 -8.6706,1.91861 -8.95126,2.07575 -0.0343,0.0192 0.44383,2.0585 1.06258,4.53173 0.93738,3.74687 1.18378,4.47924 1.47748,4.39165 0.19386,-0.0579 2.16347,-0.55698 4.3769,-1.10924 z m -45.97126,-1.17581 c 2.31316,-0.58391 4.24219,-1.09813 4.28677,-1.14271 0.0766,-0.0766 -2.0334,-8.70527 -2.15962,-8.83149 -0.10704,-0.10705 -8.50476,1.95181 -8.70258,2.1336 -0.15743,0.14467 1.65695,8.16873 1.97856,8.75004 0.12647,0.22862 -0.0492,0.26338 4.59687,-0.90944 z m 60.52078,-2.39471 c 2.31313,-0.58391 4.26056,-1.1165 4.32759,-1.18354 0.13582,-0.13581 -1.86758,-8.4241 -2.09938,-8.68542 -0.14407,-0.16241 -8.46561,1.72839 -8.76218,1.99091 -0.17272,0.15289 1.98399,8.95369 2.19212,8.94523 0.0749,-0.003 2.02871,-0.48327 4.34185,-1.06718 z m -44.4124,-1.64389 c 0.1903,-0.1903 -2.03618,-8.66209 -2.30352,-8.76498 -0.2179,-0.0839 -8.46555,1.82418 -8.71185,2.01542 -0.0343,0.0267 0.43918,2.05346 1.05225,4.504 l 1.11468,4.45553 4.37746,-1.05822 c 2.40761,-0.58203 4.41954,-1.10032 4.47098,-1.15175 z m 6.85388,-1.64863 c 1.9403,-0.48512 3.88326,-0.9755 4.31766,-1.08975 l 0.78982,-0.20771 -1.09484,-4.4072 c -0.60218,-2.42396 -1.11631,-4.43528 -1.14253,-4.46961 -0.0262,-0.0343 -2.05654,0.44016 -4.51186,1.05442 l -4.46421,1.11685 0.40164,1.55798 c 0.22089,0.85689 0.70703,2.85603 1.08029,4.44252 0.37326,1.58649 0.7726,2.88453 0.88742,2.88453 0.11482,0 1.79629,-0.39692 3.73661,-0.88203 z m 52.29277,-0.3407 c 2.27497,-0.55411 4.2194,-1.08349 4.32094,-1.17639 0.18107,-0.16565 -1.72622,-8.43526 -2.02046,-8.76036 -0.13548,-0.14968 -8.60357,1.82441 -8.83996,2.06079 -0.0548,0.0548 0.29588,1.70804 0.77926,3.67391 1.201,4.88461 1.2919,5.2069 1.46903,5.2083 0.0852,6.4e-4 2.01621,-0.45214 4.29119,-1.00625 z m -39.5157,-2.81049 c 2.21344,-0.55227 4.05433,-1.03399 4.09085,-1.07051 0.0908,-0.0908 -2.05515,-8.61062 -2.20709,-8.76256 -0.10751,-0.1075 -8.6198,1.83813 -8.81659,2.01519 -0.0836,0.0752 1.91324,8.57644 2.08262,8.86657 0.0553,0.0947 0.26367,0.12337 0.46313,0.0638 0.19946,-0.0596 2.17366,-0.5602 4.38708,-1.11246 z m 50.81832,-0.0175 c 0.52435,-0.20121 0.44821,-1.32946 -0.10148,-1.50393 -0.89258,-0.2833 -1.4984,0.93421 -0.69708,1.40093 0.46543,0.27109 0.38692,0.26097 0.79856,0.103 z m -39.22272,-2.84849 c 2.89811,-0.6906 4.29958,-1.11821 4.29958,-1.31186 0,-0.43475 -2.00031,-8.4205 -2.15293,-8.59499 -0.10524,-0.12035 -8.69469,1.89247 -8.88407,2.08185 -0.0459,0.0459 1.41279,6.18213 1.90888,8.02994 0.12055,0.44901 0.28888,0.8171 0.37407,0.81799 0.0852,6.4e-4 2.0897,-0.45943 4.45447,-1.02293 z m -44.9464,-1.45788 c 2.12048,-0.52541 4.11326,-1.0142 4.42841,-1.08621 l 0.57301,-0.13092 -1.09574,-4.41073 c -0.60265,-2.4259 -1.12658,-4.44822 -1.16428,-4.49404 -0.0563,-0.0685 -4.97022,1.10221 -8.16428,1.94503 l -0.78798,0.20792 1.11029,4.46212 c 0.61066,2.45417 1.14065,4.46212 1.17773,4.46212 0.0371,0 1.80236,-0.42988 3.92284,-0.95529 z m 56.74461,-1.46257 c 2.84771,-0.71243 4.41351,-1.20107 4.36006,-1.36063 -0.0459,-0.13693 -0.53715,-2.1348 -1.09174,-4.4397 -0.55459,-2.30491 -1.09957,-4.19074 -1.21111,-4.19074 -0.47823,0 -8.37787,2.03757 -8.56789,2.20994 -0.13189,0.11963 0.18765,1.80079 0.86314,4.54137 0.58991,2.39328 1.10215,4.35142 1.13832,4.35142 0.0361,0 2.06531,-0.50025 4.50922,-1.11166 z m -44.12271,-1.64246 c 2.2428,-0.55689 4.10593,-1.03399 4.14026,-1.06022 0.0344,-0.0262 -0.439,-2.05199 -1.05186,-4.50167 l -1.11429,-4.45397 -4.39066,1.07264 c -2.41485,0.58995 -4.42774,1.1083 -4.47305,1.15188 -0.0809,0.0778 1.90904,8.32081 2.08593,8.64058 0.15205,0.27484 0.58416,0.19845 4.80367,-0.84924 z m 56.16675,-1.30621 c 2.24282,-0.55688 4.10351,-1.03155 4.13487,-1.05481 0.0804,-0.0596 -1.8752,-8.19792 -2.0721,-8.62317 -0.1434,-0.30972 -0.65812,-0.22859 -4.49944,0.70917 -2.38563,0.58239 -4.38203,1.1034 -4.43644,1.15781 -0.0918,0.0919 1.86912,8.29811 2.06945,8.66024 0.15206,0.27484 0.58417,0.19845 4.80366,-0.84924 z m -44.70995,-1.51586 c 2.28755,-0.55246 4.2459,-1.08492 4.3519,-1.18326 0.18915,-0.17547 -1.72845,-8.41342 -2.03961,-8.76212 -0.13173,-0.14761 -8.58981,1.82978 -8.82266,2.06263 -0.0447,0.0447 0.34287,1.79326 0.86134,3.88561 0.51849,2.09234 1.00449,4.07367 1.08,4.40294 0.0755,0.32927 0.19864,0.59867 0.27359,0.59867 0.075,0 2.0079,-0.45201 4.29544,-1.00447 z m 12.15892,-3.03887 c 3.45758,-0.85332 4.27938,-1.12599 4.19945,-1.39333 -0.0546,-0.18281 -0.55631,-2.16924 -1.11481,-4.41427 -0.71147,-2.85999 -1.1063,-4.08189 -1.31897,-4.08189 -0.34515,0 -8.40961,1.98329 -8.55213,2.10323 -0.19852,0.16706 2.03816,9.00989 2.25875,8.93005 0.12588,-0.0456 2.16335,-0.56028 4.52771,-1.14379 z m -41.64249,-2.25397 c 2.33044,-0.5811 4.27543,-1.17131 4.32219,-1.31159 0.0747,-0.22427 -1.87474,-8.47893 -2.05304,-8.69311 -0.057,-0.0684 -4.96807,1.10145 -8.16508,1.94504 l -0.78798,0.20792 1.1103,4.46212 c 0.61066,2.45416 1.16119,4.45853 1.22337,4.45413 0.0622,-0.004 2.01981,-0.48342 4.35024,-1.06451 z m 53.29427,-0.5906 c 2.24282,-0.5555 4.15599,-1.07939 4.25151,-1.16421 0.14557,-0.12927 -1.82908,-8.59099 -2.05712,-8.81507 -0.0927,-0.0911 -8.65416,1.97011 -8.80361,2.11956 -0.09,0.09 1.67811,7.78922 1.97445,8.59759 0.13917,0.37958 0.0941,0.38677 4.63477,-0.73787 z m -41.14542,-2.39723 c 2.2428,-0.55688 4.10593,-1.03397 4.14026,-1.06021 0.0344,-0.0262 -0.4389,-2.05158 -1.05164,-4.50077 l -1.11405,-4.45308 -4.3888,1.06648 c -2.41381,0.58657 -4.42495,1.10266 -4.46919,1.14689 -0.0442,0.0442 0.39569,2.04379 0.97757,4.44347 0.87849,3.62289 1.12328,4.36362 1.44299,4.3664 0.21175,0.002 2.22004,-0.45229 4.46286,-1.00918 z m 53.33632,-0.6251 c 2.06748,-0.50031 3.8231,-0.97369 3.90137,-1.05196 0.0783,-0.0783 -0.33452,-2.10122 -0.91733,-4.49543 -0.81528,-3.34927 -1.13762,-4.35173 -1.3978,-4.34707 -0.18601,0.003 -2.19951,0.4768 -4.47448,1.05216 -3.65513,0.92443 -4.12941,1.09467 -4.07698,1.46343 0.0326,0.22953 0.5094,2.25317 1.05947,4.49698 l 1.00011,4.07967 0.5733,-0.14407 c 0.31532,-0.0792 2.26487,-0.55342 4.33234,-1.05371 z m -41.90598,-2.19635 c 2.30209,-0.55213 4.27236,-1.0846 4.37836,-1.18326 0.18915,-0.17607 -1.72827,-8.41385 -2.03961,-8.76273 -0.12983,-0.14549 -8.59013,1.82855 -8.81638,2.05712 -0.0611,0.0618 0.51326,2.53397 1.95228,8.40291 0.066,0.2694 0.16952,0.48982 0.22991,0.48982 0.0603,0 1.99333,-0.45174 4.29544,-1.00386 z m 53.60367,-0.70745 c 3.67219,-0.92874 4.12831,-1.09295 4.0649,-1.46343 -0.0393,-0.22953 -0.51366,-2.25789 -1.0542,-4.50749 -0.83039,-3.45591 -1.03874,-4.07335 -1.34363,-3.98176 -0.19848,0.0596 -2.1977,0.56537 -4.44275,1.12386 -2.25935,0.56206 -4.08413,1.12486 -4.0869,1.2605 -0.003,0.13478 0.46004,2.13089 1.02843,4.43579 0.78261,3.17366 1.11405,4.18928 1.36565,4.18469 0.1827,-0.003 2.19353,-0.4768 4.4685,-1.05216 z m -41.41829,-2.33203 c 3.45758,-0.85332 4.27939,-1.12599 4.19946,-1.39333 -0.0547,-0.18282 -0.55634,-2.16924 -1.11481,-4.41428 -0.71147,-2.85998 -1.1063,-4.08189 -1.31898,-4.08189 -0.34925,0 -8.41075,1.98409 -8.55426,2.10537 -0.20183,0.17057 2.03404,9.01013 2.25846,8.92885 0.12722,-0.0461 2.16577,-0.5612 4.53013,-1.14472 z m 11.65178,-2.84457 c 2.24282,-0.5555 4.15599,-1.07939 4.25151,-1.16421 0.14544,-0.12914 -1.82819,-8.58762 -2.05712,-8.81631 -0.0961,-0.096 -8.64726,1.96446 -8.80424,2.12145 -0.0965,0.0964 1.65539,7.72007 1.97551,8.59694 0.13857,0.3796 0.0937,0.38675 4.63434,-0.73787 z m -43.96441,-1.71444 c 2.07376,-0.51382 3.82305,-0.98677 3.88727,-1.051 0.10011,-0.10011 -1.8555,-8.58789 -2.03425,-8.82914 -0.0843,-0.11376 -8.6256,1.94294 -8.82257,2.12443 -0.0832,0.0767 0.34508,2.12204 0.95172,4.5453 l 1.10298,4.40593 0.57217,-0.13066 c 0.31471,-0.0719 2.2689,-0.55106 4.34268,-1.06486 z m 55.93919,-1.26555 c 2.18808,-0.52533 4.03887,-1.01568 4.11287,-1.08968 0.24936,-0.24936 -1.94487,-8.85317 -2.25782,-8.85317 -0.43712,0 -8.42285,1.99983 -8.59703,2.15293 -0.0832,0.0731 0.346,2.11925 0.95375,4.54698 0.92153,3.68109 1.16354,4.39612 1.45746,4.30607 0.19384,-0.0594 2.14269,-0.5378 4.33077,-1.06313 z m -44.30943,-1.61299 c 3.43628,-0.82634 4.27788,-1.09924 4.19948,-1.36173 -0.0539,-0.18057 -0.55764,-2.18964 -1.11932,-4.4646 -0.56168,-2.27498 -1.03333,-4.15503 -1.04811,-4.17791 -0.0452,-0.07 -8.71084,2.1326 -8.82018,2.24194 -0.1839,0.1839 2.03368,8.7935 2.26525,8.79463 0.12395,6.4e-4 2.15925,-0.46394 4.52288,-1.03233 z m 55.95991,-1.2617 c 2.18033,-0.54271 4.07369,-1.02446 4.20744,-1.07057 0.16272,-0.0561 -0.11065,-1.54585 -0.82602,-4.50173 -0.58809,-2.42984 -1.09178,-4.44042 -1.11932,-4.46796 -0.0726,-0.0726 -8.72167,2.11175 -8.84338,2.23346 -0.0563,0.0562 0.37967,2.05785 0.96878,4.44793 0.72087,2.92467 1.16546,4.3456 1.35967,4.3456 0.15871,0 2.07248,-0.44403 4.25283,-0.98673 z m -44.29589,-1.60989 c 2.31314,-0.58392 4.25198,-1.10792 4.30853,-1.16448 0.10544,-0.10544 -1.97185,-8.60017 -2.14554,-8.77387 -0.11359,-0.11359 -8.57529,1.93352 -8.76138,2.1196 -0.0964,0.0964 1.48064,6.995 1.97042,8.61934 0.10881,0.36087 -0.15154,0.40591 4.62797,-0.80059 z m 11.95856,-2.96224 c 2.4089,-0.58358 4.19287,-1.1218 4.19575,-1.26584 0.003,-0.13781 -0.46003,-2.1364 -1.02841,-4.4413 -0.77654,-3.14892 -1.11604,-4.19199 -1.36565,-4.19576 -0.79638,-0.012 -8.71466,2.08362 -8.63853,2.28626 0.0459,0.12227 0.54556,2.15101 1.11031,4.5083 0.67276,2.80818 1.11456,4.25799 1.2813,4.2048 0.13998,-0.0447 2.14033,-0.53806 4.44523,-1.09646 z m -39.9285,-1.66143 c 0.1643,-0.26218 0.14799,-0.45832 -0.0588,-0.70753 -0.41374,-0.49852 -1.26222,-0.43871 -1.43353,0.10105 -0.29615,0.9331 0.9662,1.44611 1.49237,0.60648 z m 51.73875,-1.26117 c 3.86077,-0.96734 4.24055,-1.10416 4.19418,-1.51102 -0.0605,-0.5314 -2.01763,-8.36739 -2.11377,-8.46355 -0.0903,-0.0903 -8.61018,2.05468 -8.7612,2.2057 -0.20107,0.20108 1.95428,8.84909 2.20333,8.84052 0.12778,-0.004 2.14262,-0.48664 4.47746,-1.07165 z m 11.97052,-2.95358 c 2.21342,-0.55227 4.05925,-1.03894 4.1018,-1.0815 0.11564,-0.11563 -1.94763,-8.4617 -2.1452,-8.67751 -0.1323,-0.14452 -8.56873,1.70365 -8.88539,1.94653 -0.0408,0.0313 0.33016,1.70527 0.8244,3.71989 1.36062,5.54593 1.29063,5.33281 1.71035,5.20726 0.20328,-0.0608 2.18059,-0.5624 4.39404,-1.11467 z m 11.67438,-2.86611 c 2.85802,-0.69163 4.22079,-1.11501 4.22079,-1.3113 0,-0.29723 -1.96951,-8.61103 -2.06659,-8.72359 -0.0296,-0.0344 -2.07739,0.44383 -4.55062,1.06258 -3.74804,0.93768 -4.47917,1.18368 -4.39101,1.47747 0.0582,0.19386 0.5627,2.18933 1.1212,4.43437 0.55848,2.24504 1.11219,4.08189 1.23043,4.08189 0.11825,0 2.11435,-0.45964 4.4358,-1.02142 z m 1.38201,-11.70363 c 0.43139,-0.51977 0.0692,-1.2078 -0.6358,-1.2078 -0.70478,0 -0.98804,0.47879 -0.6533,1.10428 0.26558,0.49623 0.91959,0.54875 1.2891,0.10352 z"
       id="path21634" />
    <path
       style="fill:#f2f2f2;stroke-width:0.217701"
       d="m 47.209107,191.36617 c -22.390498,-4.25125 -41.0268596,-7.8784 -41.4140996,-8.06034 -0.9078564,-0.42652 -1.5817691,-1.52806 -1.5817691,-2.58549 0,-1.22597 11.2828467,-60.56336 11.6515297,-61.27631 0.416042,-0.80457 1.29662,-1.4748 2.140121,-1.62893 0.677489,-0.12379 85.328681,15.78227 85.637871,16.09146 0.16266,0.16266 -2.74287,15.82037 -2.98594,16.09119 -0.0867,0.0966 -1.420764,-0.0659 -2.964495,-0.36111 -1.543721,-0.29525 -2.846485,-0.49789 -2.894995,-0.45032 -0.0612,0.06 -2.370086,11.7457 -2.412196,12.20852 -0.002,0.0191 0.68415,0.15747 1.52418,0.3076 1.218386,0.21774 1.507293,0.34283 1.428453,0.61844 -0.0544,0.19003 -0.556167,2.79464 -1.115084,5.78802 -0.558919,2.99339 -1.030299,5.45144 -1.047499,5.46236 -0.0172,0.0109 -1.33264,-0.22248 -2.92326,-0.51864 -1.59058,-0.29617 -2.93628,-0.4942 -2.99041,-0.44006 -0.18297,0.18297 -2.31867,11.7392 -2.21776,12.00033 0.055,0.14243 1.39262,0.4969 2.9724,0.78773 2.34994,0.43259 2.85618,0.59097 2.78349,0.8708 -0.0489,0.18812 -0.6163,3.15853 -1.26096,6.60093 -0.64862,3.46354 -1.27204,6.25096 -1.39583,6.24113 -0.12306,-0.01 -18.543229,-3.49605 -40.933747,-7.74731 z m 39.386007,4.36742 c 0.52435,-0.20121 0.44821,-1.32946 -0.10149,-1.50393 -0.83032,-0.26353 -1.43589,0.75575 -0.81681,1.37483 0.29653,0.29653 0.43225,0.31561 0.9183,0.1291 z m -2.24025,-4.9814 c 0.45434,-2.39337 0.75641,-4.41477 0.67126,-4.49198 -0.17911,-0.16242 -8.755523,-1.78663 -8.861831,-1.67826 -0.102667,0.10468 -1.633762,8.21422 -1.633762,8.65337 0,0.30589 0.686832,0.50497 3.973035,1.15167 2.18517,0.43002 4.209781,0.76721 4.499134,0.74932 0.507876,-0.0314 0.554704,-0.18328 1.352164,-4.38412 z m -17.991177,-3.26566 c 0.463179,-2.45333 0.777994,-4.52474 0.699605,-4.60312 -0.182073,-0.18209 -8.719564,-1.81099 -8.846157,-1.6878 -0.132672,0.12911 -1.779859,8.84066 -1.688825,8.9317 0.04089,0.0409 2.026358,0.45625 4.412145,0.92303 2.385801,0.46678 4.392552,0.85951 4.459461,0.87273 0.06691,0.0132 0.500593,-1.98321 0.963771,-4.43654 z m -14.920028,-3.10596 c 0.452613,-2.36398 0.799616,-4.32646 0.771102,-4.36107 -0.08418,-0.1022 -8.91105,-1.76444 -8.983718,-1.69178 -0.08449,0.0845 -1.776359,8.9172 -1.719029,8.97452 0.185087,0.18509 8.979232,1.70536 9.035665,1.56202 0.04019,-0.10205 0.443367,-2.11971 0.89598,-4.48369 z M 36.44363,181.68686 c 0.46335,-2.42874 0.804063,-4.45429 0.757119,-4.50123 -0.108835,-0.10883 -8.888115,-1.79095 -8.961948,-1.71712 -0.03027,0.0303 -0.433243,2.06047 -0.895461,4.51151 -0.732209,3.88281 -0.796769,4.468 -0.501522,4.54633 0.775588,0.20578 8.617499,1.67593 8.685393,1.62828 0.04063,-0.0285 0.453055,-2.03904 0.916419,-4.46777 z m -14.950456,-2.88161 c 0.446028,-2.37874 0.75632,-4.37963 0.689532,-4.44643 -0.126561,-0.12655 -8.876789,-1.81786 -8.94483,-1.72892 -0.115337,0.15081 -1.672828,8.89016 -1.597735,8.96524 0.179532,0.17953 8.795566,1.78581 8.916924,1.66237 0.06883,-0.07 0.490067,-2.07351 0.936109,-4.45226 z m 62.83471,4.05287 c 0,-0.0898 0.34297,-1.97564 0.76114,-4.19074 0.41816,-2.2151 0.76067,-4.18701 0.76113,-4.38203 0,-0.28782 -0.79636,-0.50705 -4.23384,-1.16456 -2.329085,-0.44551 -4.355072,-0.76988 -4.502219,-0.72083 -0.266336,0.0888 -2.02024,8.6449 -1.814331,8.85082 0.09684,0.0968 8.170549,1.71266 8.75517,1.75221 0.14967,0.0101 0.2725,-0.0551 0.27295,-0.14487 z M 8.7410259,180.28109 c 0.08361,-0.58519 -0.4622947,-1.03657 -1.0341354,-0.85507 -0.4387327,0.13925 -0.6226877,0.95126 -0.290723,1.28323 0.329713,0.32971 1.2595114,0.0292 1.3248584,-0.42816 z m 64.3741951,-3.88381 c 0.444947,-2.32617 0.768376,-4.35127 0.718738,-4.50022 -0.08857,-0.26569 -8.649475,-2.02535 -8.854757,-1.82006 -0.119215,0.11921 -1.798096,8.85182 -1.717238,8.93208 0.110224,0.10941 7.901097,1.58008 8.469245,1.59873 l 0.575021,0.0189 z m -12.734404,1.88912 c 0,-0.0898 0.342953,-1.97563 0.761133,-4.19073 0.418173,-2.2151 0.760684,-4.18054 0.761125,-4.36764 0,-0.26966 -0.903838,-0.51208 -4.363007,-1.1694 -2.40009,-0.45607 -4.430799,-0.76225 -4.512643,-0.68039 -0.209653,0.20964 -1.803069,8.67177 -1.660497,8.81834 0.121749,0.12517 7.962854,1.70019 8.632101,1.73391 0.209538,0.0105 0.381334,-0.0543 0.381788,-0.14409 z m -11.215479,-6.47432 c 0.463178,-2.45333 0.782089,-4.52063 0.70871,-4.59401 -0.169921,-0.16993 -8.729892,-1.81364 -8.850438,-1.69949 -0.136684,0.12943 -1.777747,8.85018 -1.683207,8.94473 0.04537,0.0454 2.030338,0.45975 4.411007,0.92084 2.380675,0.46109 4.383241,0.84963 4.450149,0.86344 0.06692,0.0138 0.500613,-1.98218 0.963779,-4.43551 z m -12.731595,1.90261 c 0,-0.0898 0.342971,-1.97563 0.761126,-4.19074 0.418179,-2.2151 0.76069,-4.17698 0.761151,-4.35973 0,-0.25981 -0.955735,-0.5116 -4.385142,-1.15453 -2.41228,-0.45224 -4.452383,-0.74356 -4.533568,-0.64738 -0.159874,0.18941 -1.811873,8.7923 -1.70426,8.8751 0.120072,0.0924 8.113264,1.5939 8.61005,1.61739 0.269408,0.0127 0.490201,-0.0503 0.490643,-0.14011 z m 56.165941,-1.77464 c 0,-0.10798 0.34289,-1.99283 0.76196,-4.18857 0.41908,-2.19574 0.76195,-4.14691 0.76195,-4.33593 0,-0.27457 -0.88065,-0.5083 -4.38012,-1.16253 -2.40906,-0.45037 -4.45186,-0.73754 -4.53955,-0.63815 -0.22107,0.25057 -1.766662,8.61491 -1.61985,8.76619 0.13615,0.1403 7.78316,1.69218 8.52579,1.73021 0.2694,0.0138 0.48982,-0.0632 0.48982,-0.17122 z m -67.381408,-4.69968 c 0.463178,-2.45333 0.789249,-4.51347 0.724625,-4.5781 -0.06464,-0.0646 -2.06577,-0.48959 -4.447001,-0.94436 -3.840651,-0.7335 -4.347157,-0.78808 -4.486062,-0.48344 -0.23029,0.50507 -1.714998,8.55863 -1.599155,8.67446 0.08342,0.0834 8.053145,1.69642 8.734954,1.76788 0.131571,0.0138 0.591972,-1.89044 1.072639,-4.43644 z m 56.166756,-1.7416 c 0.463178,-2.45333 0.785769,-4.51696 0.716876,-4.58586 -0.06889,-0.0689 -2.070044,-0.49766 -4.446988,-0.95281 -3.880965,-0.74316 -4.338,-0.79167 -4.481115,-0.47569 -0.215342,0.47547 -1.718319,8.56098 -1.611231,8.66805 0.06188,0.0619 7.929585,1.6506 8.858687,1.7888 0.0669,0.01 0.500593,-1.98917 0.963771,-4.44249 z m -12.73242,1.86956 c 0,-0.10797 0.342882,-1.99282 0.761958,-4.18856 0.419076,-2.19574 0.761721,-4.14018 0.761413,-4.32098 0,-0.25488 -0.986034,-0.51432 -4.387675,-1.15497 -2.41292,-0.45443 -4.455602,-0.74833 -4.539257,-0.6531 -0.163836,0.18651 -1.808572,8.78429 -1.697708,8.87477 0.119138,0.0973 8.10668,1.59956 8.611458,1.61966 0.269401,0.0108 0.489811,-0.0688 0.489811,-0.17682 z M 57.43408,160.9197 c 0.457221,-2.45737 0.785666,-4.51359 0.729873,-4.56938 -0.192843,-0.19285 -8.452665,-1.67606 -8.733527,-1.56828 -0.281867,0.10816 -2.005331,8.60831 -1.789208,8.82442 0.08989,0.0899 8.051621,1.69443 8.727569,1.75888 0.136076,0.013 0.581849,-1.84737 1.065293,-4.44564 z m -12.730155,1.90996 c -0.0019,-0.0898 0.35545,-2.05522 0.791893,-4.3676 0.453989,-2.40533 0.710861,-4.2779 0.600304,-4.37628 -0.291414,-0.25933 -8.657308,-1.76783 -8.811973,-1.58893 -0.153578,0.17763 -1.781555,8.76938 -1.679887,8.86563 0.121922,0.11542 7.893507,1.58519 8.502616,1.60802 0.329271,0.0123 0.59795,-0.0511 0.597047,-0.14084 z m -11.216919,-6.48167 c 0.457233,-2.45737 0.791911,-4.50736 0.743726,-4.55554 -0.234193,-0.23419 -8.734807,-1.67713 -8.889895,-1.50901 -0.238333,0.25836 -1.78915,8.60826 -1.629051,8.77115 0.117397,0.11945 7.838935,1.67727 8.601097,1.73525 0.277189,0.0211 0.501912,-0.829 1.174123,-4.44185 z m 59.175818,-1.22037 c 0.45381,-2.40958 0.77142,-4.43472 0.70583,-4.50033 -0.12514,-0.12512 -8.8754,-1.81472 -8.94268,-1.72676 -0.11648,0.15232 -1.672415,8.89055 -1.596548,8.96642 0.143352,0.14335 7.630098,1.59428 8.355218,1.61924 l 0.65309,0.0225 z m -71.164179,-0.96197 c 0.459518,-2.46029 0.777059,-4.5317 0.705646,-4.60311 -0.220257,-0.22025 -8.730488,-1.78139 -8.870128,-1.62717 -0.165468,0.18275 -1.77275,8.76317 -1.662225,8.8737 0.04479,0.0448 2.034126,0.4631 4.42072,0.92955 2.386601,0.46645 4.391298,0.85984 4.454892,0.8742 0.06361,0.0144 0.49159,-1.98687 0.951095,-4.44717 z m 59.168014,-1.18694 c 0.443635,-2.33484 0.811934,-4.35045 0.818455,-4.47913 0.0112,-0.22026 -8.833225,-2.00008 -8.999197,-1.81097 -0.195652,0.22296 -1.693376,8.72075 -1.560909,8.85637 0.1942,0.19884 7.926943,1.75603 8.501733,1.71205 0.386326,-0.0296 0.520809,-0.49357 1.239918,-4.27832 z m -11.936637,-2.47715 c 0.445453,-2.38018 0.76771,-4.36982 0.716121,-4.42141 -0.09931,-0.0993 -8.926811,-1.81213 -8.976775,-1.74178 -0.136038,0.19151 -1.650578,8.8933 -1.563109,8.98078 0.201698,0.20169 8.761855,1.78591 8.890259,1.6453 0.06796,-0.0744 0.488032,-2.08271 0.933504,-4.46289 z m -12.010425,-2.09457 c 0.443623,-2.33484 0.811583,-4.34312 0.817681,-4.46286 0.01018,-0.20113 -8.853356,-1.98885 -9.01332,-1.81792 -0.09355,0.1 -1.641396,8.32309 -1.641396,8.72011 0,0.22273 1.101506,0.51774 4.081883,1.09324 2.24504,0.4335 4.276882,0.77117 4.515216,0.75039 0.385787,-0.0337 0.521844,-0.50365 1.239936,-4.28296 z m -11.968971,-2.38143 c 0.462512,-2.43355 0.806514,-4.45907 0.764427,-4.50115 -0.04211,-0.0421 -1.931344,-0.422 -4.198339,-0.84427 -2.267015,-0.42226 -4.276575,-0.80223 -4.465706,-0.84437 -0.284746,-0.0635 -0.486561,0.68664 -1.173534,4.36183 -0.456305,2.44115 -0.765125,4.50298 -0.686275,4.58184 0.16086,0.16085 8.403987,1.7815 8.717734,1.71395 0.11039,-0.0237 0.579155,-2.03429 1.041693,-4.46783 z m 55.333704,2.43586 c 0.26588,-0.90282 1.67205,-8.60401 1.58661,-8.68945 -0.0518,-0.0518 -1.893597,-0.4316 -4.092895,-0.844 -2.199288,-0.41239 -4.202381,-0.79715 -4.451331,-0.85502 -0.42768,-0.0994 -0.49841,0.14084 -1.28299,4.35755 -0.45669,2.45451 -0.77356,4.51954 -0.70414,4.58896 0.0917,0.0917 6.311281,1.37857 8.683949,1.79675 0.0817,0.0144 0.199087,-0.14526 0.260797,-0.35479 z m -67.304019,-4.72799 c 0.448095,-2.39087 0.742997,-4.40649 0.655342,-4.47916 -0.18309,-0.15176 -8.777265,-1.78772 -8.871651,-1.68876 -0.132128,0.13856 -1.701221,8.88203 -1.610264,8.97299 0.17266,0.17266 7.912941,1.61449 8.469833,1.57772 0.528648,-0.0349 0.562089,-0.1429 1.35674,-4.38279 z m 56.161333,-1.74092 c 0.45185,-2.39048 0.7495,-4.41042 0.66146,-4.48875 -0.18341,-0.16319 -8.762518,-1.79511 -8.864391,-1.68619 -0.09505,0.1016 -1.636469,8.28644 -1.636469,8.68947 0,0.25835 0.892173,0.50872 3.973035,1.11501 2.185165,0.43002 4.214205,0.76722 4.508955,0.74933 0.52076,-0.0316 0.55909,-0.15531 1.35741,-4.37887 z m -12.802039,1.89719 c 0.18915,-0.62926 1.665987,-8.60785 1.604511,-8.66832 -0.105482,-0.10378 -8.152567,-1.61803 -8.598595,-1.61803 -0.398042,0 -0.507825,0.34906 -1.112615,3.53764 -1.062682,5.60267 -1.042096,5.34593 -0.440474,5.49166 0.483342,0.11707 7.96055,1.57872 8.284068,1.61936 0.08172,0.0103 0.200125,-0.15277 0.263105,-0.36231 z m -11.146114,-6.4628 c 0.451174,-2.38712 0.771486,-4.38904 0.711827,-4.44871 -0.126292,-0.12628 -8.847481,-1.80544 -8.927188,-1.71882 -0.08847,0.0961 -1.622948,8.31483 -1.622948,8.69253 0,0.27926 0.778756,0.50423 3.864193,1.11633 2.125301,0.42163 4.154346,0.75137 4.508983,0.73274 l 0.644816,-0.0339 z m -12.800941,1.89109 c 0.186712,-0.62119 1.666486,-8.60807 1.604486,-8.66006 -0.155984,-0.13084 -8.876124,-1.69653 -8.963299,-1.60935 -0.175847,0.17586 -1.689011,8.47147 -1.596077,8.75025 0.05202,0.15602 1.790935,0.59575 4.207055,1.06385 4.936492,0.9564 4.606716,0.92478 4.747835,0.45531 z m -11.091786,-6.67931 c 0.422595,-2.26674 0.727402,-4.16228 0.677349,-4.21234 -0.106084,-0.10609 -8.890023,-1.80156 -8.958691,-1.7292 -0.145266,0.15305 -1.675855,8.87354 -1.575134,8.97426 0.06695,0.067 2.070006,0.49382 4.451219,0.94859 3.838929,0.73316 4.346907,0.78793 4.483182,0.48343 0.08454,-0.18887 0.49948,-2.19801 0.922075,-4.46474 z m 59.076656,4.19445 c 0.05,-0.43229 -0.0497,-0.61705 -0.391427,-0.72552 -0.533877,-0.16945 -1.090714,0.21428 -1.090714,0.75162 0,0.52854 0.22843,0.69226 0.862654,0.6183 0.41593,-0.0485 0.568967,-0.20769 0.619487,-0.6444 z m -71.931951,-2.08685 c 0.184786,-0.61471 1.666934,-8.60834 1.604511,-8.65346 -0.147556,-0.10662 -8.908887,-1.67025 -8.97634,-1.60199 -0.115132,0.11649 -1.63906,8.11112 -1.63906,8.59857 0,0.37279 0.463818,0.5097 4.081883,1.20497 4.888647,0.93942 4.785334,0.92995 4.929006,0.45191 z m -8.401703,-13.02666 c 0.0836,-0.58518 -0.462314,-1.03656 -1.034136,-0.85507 -0.438733,0.13925 -0.6227,0.95126 -0.290723,1.28324 0.329713,0.32971 1.259506,0.0292 1.324859,-0.42817 z"
       id="path21710" />
  </g>
</svg>
