<?xml version="1.0" encoding="UTF-8" standalone="no"?>
<svg
   viewBox="0 0 512 512"
   version="1.1"
   id="svg1"
   sodipodi:docname="compass-regular.svg"
   inkscape:version="1.3 (0e150ed, 2023-07-21)"
   xmlns:inkscape="http://www.inkscape.org/namespaces/inkscape"
   xmlns:sodipodi="http://sodipodi.sourceforge.net/DTD/sodipodi-0.dtd"
   xmlns="http://www.w3.org/2000/svg"
   xmlns:svg="http://www.w3.org/2000/svg">
  <defs
     id="defs1" />
  <sodipodi:namedview
     id="namedview1"
     pagecolor="#ffffff"
     bordercolor="#000000"
     borderopacity="0.25"
     inkscape:showpageshadow="2"
     inkscape:pageopacity="0.0"
     inkscape:pagecheckerboard="0"
     inkscape:deskcolor="#d1d1d1"
     inkscape:zoom="0.4609375"
     inkscape:cx="254.91525"
     inkscape:cy="256"
     inkscape:window-width="1792"
     inkscape:window-height="1087"
     inkscape:window-x="5"
     inkscape:window-y="49"
     inkscape:window-maximized="0"
     inkscape:current-layer="svg1" />
  <!--! Font Awesome Pro 6.4.2 by @fontawesome - https://fontawesome.com License - https://fontawesome.com/license (Commercial License) Copyright 2023 Fonticons, Inc. -->
  <path
     d="M464 256A208 208 0 1 0 48 256a208 208 0 1 0 416 0zM0 256a256 256 0 1 1 512 0A256 256 0 1 1 0 256zm306.7 69.1L162.4 380.6c-19.4 7.5-38.5-11.6-31-31l55.5-144.3c3.3-8.5 9.9-15.1 18.4-18.4l144.3-55.5c19.4-7.5 38.5 11.6 31 31L325.1 306.7c-3.2 8.5-9.9 15.1-18.4 18.4zM288 256a32 32 0 1 0 -64 0 32 32 0 1 0 64 0z"
     id="path1"
     style="fill:#d4be98;fill-opacity:1" />
</svg>
